<?xml version="1.0" standalone="no"?>
<!DOCTYPE svg PUBLIC "-//W3C//DTD SVG 1.1//EN" "http://www.w3.org/Graphics/SVG/1.1/DTD/svg11.dtd" >
<svg xmlns="http://www.w3.org/2000/svg">
<metadata>Generated by IcoMoon</metadata>
<defs>
<font id="icomoon" horiz-adv-x="1024">
<font-face units-per-em="1024" ascent="960" descent="-64" />
<missing-glyph horiz-adv-x="1024" />
<glyph unicode="&#x20;" horiz-adv-x="512" d="" />
<glyph unicode="&#xe900;" d="M619.457 84.995c-35.217 0-66.822-0.903-92.106-3.612-25.284 2.709-56.889 3.612-92.106 3.612-102.039 0-193.242-38.829-193.242-67.725 0-27.993 75.852-24.381 176.988-23.478 40.635 0 78.561 4.515 109.263 11.739 29.799-6.321 66.822-10.836 106.554-10.836 102.039-0.903 176.988-4.515 176.988 23.478s-90.3 66.822-192.339 66.822z" />
<glyph unicode="&#xe901;" glyph-name="add_circle" d="M726 406v84h-172v172h-84v-172h-172v-84h172v-172h84v172h172zM512 874q176 0 301-125t125-301-125-301-301-125-301 125-125 301 125 301 301 125z" />
<glyph unicode="&#xe902;" glyph-name="arrow_lift" d="M246.784 491.691l443.051 442.709c24.917 24.917 62.464 24.917 87.381 0s24.917-62.464 0-87.381l-399.36-399.36 399.36-399.36c24.917-24.917 24.917-62.464 0-87.381s-62.464-24.917-87.381 0l-443.051 443.392c-24.917 24.917-24.917 62.464 0 87.381z" />
<glyph unicode="&#xe903;" glyph-name="check_circle" d="M426 234l384 384-60 62-324-324-152 152-60-60zM512 874q176 0 301-125t125-301-125-301-301-125-301 125-125 301 125 301 301 125z" />
<glyph unicode="&#xe904;" glyph-name="close" d="M810 686l-238-238 238-238-60-60-238 238-238-238-60 60 238 238-238 238 60 60 238-238 238 238z" />
<glyph unicode="&#xe905;" glyph-name="favorite" d="M512 50l-62 56c-220 200-364 330-364 492 0 132 102 234 234 234 74 0 146-36 192-90 46 54 118 90 192 90 132 0 234-102 234-234 0-162-144-294-364-494z" />
<glyph unicode="&#xe906;" glyph-name="keyboard_arrow_right" d="M366 262l196 196-196 196 60 60 256-256-256-256z" />
<glyph unicode="&#xe907;" glyph-name="remove_circle_outline" d="M512 106q140 0 241 101t101 241-101 241-241 101-241-101-101-241 101-241 241-101zM512 874q176 0 301-125t125-301-125-301-301-125-301 125-125 301 125 301 301 125zM298 490h428v-84h-428v84z" />
<glyph unicode="&#xe908;" glyph-name="shopping_cart" d="M726 192q34 0 59-26t25-60-25-59-59-25-60 25-26 59 26 60 60 26zM42 874h140l40-84h632q18 0 30-13t12-31q0-10-6-20l-152-276q-24-44-74-44h-318l-38-70-2-6q0-10 10-10h494v-86h-512q-34 0-59 26t-25 60q0 20 10 40l58 106-154 324h-86v84zM298 192q34 0 60-26t26-60-26-59-60-25-59 25-25 59 25 60 59 26z" />
<glyph unicode="&#xe909;" glyph-name="thumb_down" d="M810 832h172v-512h-172v512zM640 832q34 0 60-26t26-60v-426q0-34-26-60l-280-282-46 46q-18 18-18 44v14l42 196h-270q-34 0-60 25t-26 59l2 4h-2v82q0 16 6 32l130 300q20 52 78 52h384z" />
<glyph unicode="&#xe90a;" glyph-name="thumb_up" d="M982 534l-2-4h2v-82q0-16-6-32l-130-300q-20-52-78-52h-384q-34 0-60 26t-26 60v426q0 34 26 60l280 282 46-46q18-18 18-44v-14l-42-196h270q34 0 60-25t26-59zM42 64v512h172v-512h-172z" />
<glyph unicode="&#xe90b;" d="M873.199 363.118c-18.963 52.374-40.635 103.845-63.21 154.413 0.903 12.642 1.806 24.381 1.806 37.023 0 194.145-99.33 351.266-288.056 351.266s-288.056-157.122-288.056-351.266c0-11.739 0.903-23.478 1.806-35.217-23.478-51.471-44.247-103.845-64.113-157.122-39.732-107.457-41.538-204.981-27.993-212.205 9.933-5.418 46.053 32.508 79.464 93.009 22.575-143.577 118.293-251.034 297.989-251.034s275.414 106.554 297.989 250.131c34.314-59.598 69.531-96.621 79.464-91.203 14.448 7.224 12.642 104.748-27.090 212.205z" />
<glyph unicode="&#xe90c;" d="M450.596 792.042c-27.993-0.903-49.665-33.411-48.762-73.143s23.478-71.337 51.471-71.337c27.993 0.903 49.665 33.411 48.762 73.143s-23.478 71.337-51.471 71.337zM604.106 791.139c-27.993 0.903-51.471-30.702-52.374-70.434s21.672-72.24 49.665-72.24c27.993-0.903 51.471 30.702 52.374 70.434 0 38.829-21.672 71.337-49.665 72.24zM708.854 472.381c-54.18-9.030-117.39-14.448-184.212-14.448-65.919 0-127.323 5.418-180.6 14.448-37.023-46.956-39.732-114.681-39.732-189.63 0-138.159 78.561-250.131 223.041-250.131s223.041 111.972 223.041 250.131c-0.903 75.852-3.612 143.577-41.538 189.63z" />
<glyph unicode="&#xe90d;" d="M526.448 624.085c-97.524 0-176.085-19.866-176.085-35.217s102.942-58.695 176.085-58.695 176.085 44.247 176.085 58.695c0 14.448-78.561 35.217-176.085 35.217z" />
<glyph unicode="&#xe90e;" d="M807.28 521.143v0.903c-71.337-23.478-172.473-37.926-283.541-37.926-111.972 0-213.108 14.448-284.444 38.829-15.351-34.314-29.799-67.725-43.344-102.942 44.247-14.448 93.009-26.187 146.286-34.314v-130.935s37.926-7.224 73.143-8.127c25.284-0.903 51.471 3.612 51.471 3.612v122.808c18.060-0.903 37.023-0.903 55.986-0.903 122.808 0 235.683 18.060 326.885 47.859-12.642 33.411-27.090 66.822-42.441 101.136z" />
<glyph unicode="&#xe90f;" d="M466.85 741.474c-12.642 0-22.575-12.642-22.575-28.896s9.933-28.896 22.575-28.896 22.575 12.642 22.575 28.896c0 16.254-9.933 28.896-22.575 28.896zM629.39 723.414s-9.030 10.836-31.605 8.127c-21.672-2.709-30.702-15.351-32.508-17.157 0 0-5.418-7.224-1.806-11.739s10.836 2.709 10.836 2.709 9.933 12.642 23.478 12.642 20.769-5.418 20.769-5.418 6.321-4.515 10.836 0c4.515 5.418 0 10.836 0 10.836z" />
<glyph unicode="&#xe910;" glyph-name="花呗" d="M81.6 574.4c-12-36.8-15.2-76.8-15.2-116.8 0-251.2 199.2-454.4 445.6-454.4 245.6 0 445.6 203.2 445.6 454.4 0 183.2-106.4 341.6-260 413.6-56.8 26.4-108.8 32.8-120 3.2-10.4-30.4 30.4-59.2 60-72.8s110.4-52 106.4-128c-3.2-76-121.6-84.8-192-55.2-69.6 28.8-171.2 72-195.2 52s-28-70.4 28-104c56.8-33.6 180.8-101.6 198.4-187.2s4.8-256.8-241.6-184c-56.8 16.8-117.6 106.4-135.2 145.6-50.4 112.8 9.6 226.4 32 260 32 48.8 32 96.8-24.8 117.6-54.4 20-98.4-39.2-132-144zM576.8 792.8c40.8-16 62.4-54.4 48-85.6s-59.2-44-100-28-62.4 54.4-48 85.6c14.4 31.2 59.2 44 100 28z" />
<glyph unicode="&#xe911;" glyph-name="微信" d="M579.599 448.445c-12.783-0.833-22.863-11.301-23.077-24.169v-0.021c1.322-11.985 11.204-21.278 23.336-21.666l0.038-0.001c17.512 0 29.681 10.834 29.681 21.667 0 13.357-12.54 24.19-29.681 24.19zM502.799 561.011c0.565-0.041 1.225-0.064 1.89-0.064 15.368 0 27.826 12.458 27.826 27.826 0 0.492-0.013 0.982-0.038 1.468l0.003-0.068c0.041 0.563 0.065 1.221 0.065 1.883 0 15.122-12.259 27.381-27.381 27.381-0.833 0-1.657-0.037-2.47-0.11l0.105 0.008c-17.512 0-34.208-10.834-34.208-29.162s16.696-29.162 34.208-29.162zM512 960c-282.77 0-512-229.23-512-512s229.23-512 512-512c282.77 0 512 229.23 512 512v0c0 282.77-229.23 512-512 512v0zM415.536 318.293c-29.59 0.247-57.959 5.115-84.536 13.915l1.948-0.559-84.591-42.592 24.19 71.754c-59.214 41.702-94.46 94.609-94.46 158.497 0 113.456 106.778 200.348 236.93 200.348 115.089 0 217.711-68.415 237.449-165.176-6.638 1.482-14.306 2.394-22.165 2.522l-0.096 0.001c-113.456 0-201.016-85.111-201.016-187.659 0.121-17.856 2.551-35.093 7.004-51.496l-0.326 1.409c-5.176-0.543-11.182-0.853-17.26-0.853-1.263 0-2.522 0.013-3.778 0.040l0.188-0.003zM763.399 236.67l16.696-60.030-63.369 35.84c-24.19-4.972-47.564-12.54-71.754-12.54-111.75 0-200.348 76.726-200.348 171.854s88.45 171.854 200.348 171.854c105.591-0.148 200.941-76.874 200.941-172.002 0-53.352-35.84-100.916-82.588-135.123zM337.623 619.409c-17.512 0-35.84-10.834-35.84-29.162s18.328-29.236 35.84-29.236c0.289-0.010 0.629-0.016 0.97-0.016 15.86 0 28.717 12.857 28.717 28.717 0 0.188-0.002 0.376-0.005 0.564v-0.028c0.011 0.3 0.018 0.651 0.018 1.005 0 15.573-12.624 28.197-28.197 28.197-0.528 0-1.053-0.015-1.574-0.043l0.072 0.003zM710.493 448.742c-12.988-0.372-23.374-10.989-23.374-24.032 0-0.055 0-0.111 0.001-0.166v0.008c1.024-12.126 11.082-21.59 23.366-21.667h0.008c16.696 0 29.162 10.834 29.162 21.667 0 13.357-12.54 24.19-29.162 24.19z" />
<glyph unicode="&#xe912;" glyph-name="银行卡" horiz-adv-x="1025" d="M945.6 97.6h-865.6c-43.2 0-80 35.2-80 80v606.4c0 43.2 35.2 80 80 80h865.6c43.2 0 80-35.2 80-80v-606.4c0-44.8-36.8-80-80-80zM80 814.4c-17.6 0-32-14.4-32-32v-606.4c0-17.6 14.4-32 32-32h865.6c17.6 0 32 14.4 32 32v608c0 17.6-14.4 32-32 32h-865.6zM19.2 649.6h961.6v-48h-961.6zM296 254.4h-134.4c-25.6 0-46.4 20.8-46.4 46.4v134.4c0 25.6 20.8 46.4 46.4 46.4h134.4c25.6 0 46.4-20.8 46.4-46.4v-134.4c0-25.6-20.8-46.4-46.4-46.4zM163.2 302.4h131.2v131.2h-131.2v-131.2z" />
<glyph unicode="&#xe913;" glyph-name="支付宝" d="M938.701 290.475v420.113c0 90.556-73.523 164.079-164.147 164.079h-525.175c-90.556 0-164.079-73.489-164.079-164.079v-525.21c0-90.556 73.455-164.079 164.079-164.079h525.21c80.725 0 147.866 58.368 161.553 135.1-43.52 18.842-232.107 100.284-330.377 147.183-74.786-90.59-153.088-144.93-271.121-144.93s-196.813 72.704-187.358 161.655c6.246 58.402 46.285 153.907 220.297 137.523 91.682-8.602 133.666-25.737 208.418-50.415 19.354 35.43 35.43 74.513 47.616 116.019h-331.571v32.87h164.045v58.982h-200.090v36.181h200.124v85.197c0 0 1.809 13.312 16.521 13.312h82.057v-98.475h213.333v-36.181h-213.333v-58.982h174.046c-16.009-65.126-40.277-124.962-70.69-177.22 50.551-18.295 280.644-88.644 280.644-88.644v0 0 0zM321.57 215.006c-124.723 0-144.452 78.746-137.83 111.65 6.554 32.734 42.667 75.503 112.026 75.503 79.667 0 151.040-20.446 236.715-62.089-60.177-78.404-134.11-125.065-210.91-125.065v0 0z" />
<glyph unicode="&#xe914;" glyph-name="返回" d="M930.211-63.94c0 2.511 0.359 4.903 0.359 7.415-0.174 254.67-177.217 467.94-414.928 523.629l-3.641 0.719v-225.37l-478.365 358.774 478.365 358.774v-242.71c270.301-30.77 478.355-258.181 478.355-534.185 0-90.252-22.246-175.309-61.555-249.985l1.41 2.94z" />
<glyph unicode="&#xe915;" glyph-name="待付款" d="M510.431 4.668c-58.471 0-116.941 11.676-172.499 34.959-109.908 46.089-195.258 132.213-240.37 242.508s-44.586 231.561 1.502 341.447c46.089 109.908 132.213 195.258 242.508 240.37 110.272 45.11 231.538 44.564 341.447-1.502 109.908-46.089 195.258-132.213 240.37-242.508 27.767-67.893 38.488-142.091 30.954-214.582-0.978-9.627-9.536-16.638-19.187-15.591-9.605 1.002-16.592 9.582-15.591 19.187 6.942 66.778-2.936 135.172-28.541 197.74-41.56 101.646-120.242 181.033-221.523 223.503-101.237 42.493-213.034 42.948-314.681 1.389s-181.033-120.242-223.503-221.523-42.971-213.034-1.389-314.681c41.56-101.646 120.242-181.033 221.523-223.503 101.214-42.493 213.011-42.971 314.681-1.389 8.876 3.618 19.141-0.638 22.805-9.559 3.642-8.945-0.638-19.141-9.56-22.805-54.532-22.305-111.75-33.458-168.947-33.458zM826.864 139.567c-0.227 0-0.455 0-0.683 0.023-9.65 0.364-17.183 8.467-16.797 18.117l4.416 115.575c0.342 9.65 8.376 18.026 18.117 16.797 9.65-0.364 17.183-8.467 16.797-18.117l-4.416-115.575c-0.341-9.422-8.102-16.819-17.434-16.819zM942.44 135.152c-0.227 0-0.455 0-0.683 0.023l-115.575 4.416c-9.65 0.364-17.183 8.467-16.797 18.117 0.342 9.673 8.011 17.934 18.117 16.797l115.575-4.416c9.65-0.364 17.183-8.467 16.797-18.117-0.342-9.422-8.103-16.819-17.434-16.819zM631.606 334.12h-242.259c-9.65 0-17.48 7.829-17.48 17.48 0 9.65 7.829 17.48 17.48 17.48h242.259c9.65 0 17.48-7.829 17.48-17.48s-7.83-17.48-17.48-17.48zM653.66 433.604h-286.367c-9.65 0-17.48 7.829-17.48 17.48s7.829 17.48 17.48 17.48h286.367c9.65 0 17.48-7.829 17.48-17.48s-7.829-17.48-17.48-17.48zM510.477 233.202c-9.65 0-17.48 7.829-17.48 17.48v268.569c0 9.65 7.829 17.48 17.48 17.48s17.48-7.829 17.48-17.48v-268.569c-0.001-9.651-7.83-17.48-17.48-17.48zM510.477 496.172c-4.484 0-8.945 1.707-12.358 5.121l-108.293 108.292c-6.829 6.829-6.829 17.889 0 24.717 6.829 6.829 17.889 6.829 24.717 0l108.292-108.292c6.827-6.829 6.827-17.889 0-24.717-3.413-3.414-7.874-5.121-12.357-5.121zM510.204 496.172c-4.484 0-8.945 1.707-12.358 5.121-6.829 6.827-6.829 17.889 0 24.717l114.46 114.437c6.851 6.851 17.912 6.805 24.717 0 6.829-6.829 6.829-17.889 0-24.717l-114.46-114.437c-3.414-3.414-7.875-5.121-12.358-5.121z" />
<glyph unicode="&#xe916;" glyph-name="待评价" d="M379.781 180.608c-29.496 32.159-60.733 54.769-92.897 67.246-32.748 12.677-74.491 14.751-111.667 5.56-44.227-10.936-76.616-36.091-91.187-70.83-4.813-11.469 0.589-24.653 12.058-29.471 11.474-4.813 24.663 0.584 29.471 12.052 12.063 28.703 43.049 40.223 60.457 44.534 28.119 6.932 60.539 5.473 84.603-3.84 59.182-22.943 105.779-87.557 134.431-137.713 4.152-7.27 11.756-11.372 19.589-11.372 3.763 0 7.608 0.973 11.136 2.97 10.803 6.17 14.572 19.927 8.402 30.73-20.045 35.082-41.708 65.428-64.394 90.132v0zM972.012 182.584c-14.572 34.739-46.971 59.894-91.192 70.83-37.181 9.19-78.94 7.117-111.693-5.56-32.128-12.477-63.375-35.087-92.877-67.246-22.692-24.704-44.349-55.025-64.394-90.132-6.175-10.803-2.412-24.561 8.397-30.73 3.533-2.002 7.352-2.97 11.141-2.97 7.834 0 15.442 4.101 19.589 11.372 28.652 50.161 75.254 114.77 134.426 137.708 24.079 9.318 56.494 10.778 84.608 3.845 17.413-4.311 48.394-15.831 60.462-44.534 4.808-11.469 17.997-16.876 29.471-12.058 11.469 4.823 16.87 18.007 12.063 29.476v0zM855.711 468.091c13.379 38.758 13.635 78.833 13.911 117.627 0.020 6.569 0.082 13.389 0.189 19.973 0.169 9.226 0.333 18.483 0.497 27.72 0.778 40.704 1.556 82.775 1.664 124.257 0.031 13.558-5.627 26.952-15.539 36.762-9.779 9.723-22.605 15.063-36.040 15.063h-1.49c-47.57-1.398-87.567-14.408-128.507-31.503-8.837 25.149-21.745 48.517-39.163 70.784-14.408 18.437-33.188 36.874-51.523 50.601-26.486 19.825-51.584 29.906-74.578 29.906-35.594 0-74.706-24.381-119.578-74.511-19.277-21.56-34.432-46.239-45.153-73.687-37.868 16.901-73.4 27.259-118.226 28.411-0.415 0.010-0.824 0.015-1.239 0.015-28.022 0-51.748-23.685-51.748-51.763 0-22.241-0.86-45.199-1.807-69.463-2.964-77.691-6.067-158.008 18.893-230.134 20.168-58.404 59.387-109.133 113.434-146.714 49.859-34.678 109.752-56.765 173.179-63.831l0.916-0.113 21.427-0.748v-280.602c0-3.523 2.857-6.38 6.38-6.38h25.508c3.523 0 6.38 2.857 6.38 6.38v279.516c137.385 6.866 258.703 96.067 302.213 222.433v0zM716.488 342.41c-23.849-17.454-50.104-31.345-78.029-41.283-28.436-10.122-58.086-15.949-88.141-17.331l-53.606 1.884c-56.96 6.415-110.602 26.179-155.151 57.165-47.334 32.916-81.603 77.107-99.113 127.816-22.579 65.249-19.656 141.824-16.829 215.885l0.010 0.246c0.855 22.139 1.828 47.237 1.828 70.943 0 6.938 6.548 13.496 13.476 13.496 0.087 0 0.174 0 0.256 0 35.712-0.916 65.725-8.187 103.603-25.093l36.644-16.358 14.602 37.376c9.006 23.055 21.806 43.95 38.021 62.085 36.173 40.407 67.661 61.763 91.069 61.763 14.321 0 32.169-7.7 51.635-22.277 15.759-11.796 31.903-27.658 44.319-43.546 14.848-18.975 25.708-38.559 33.198-59.884l13.435-38.252 37.417 15.621c33.567 14.019 70.641 27.167 114.345 28.549h0.906c3.338 0 6.467-1.362 9.057-3.937l0.036-0.031 0.036-0.036c2.632-2.601 4.188-6.139 4.183-9.457-0.108-39.66-0.809-79.452-1.659-123.628v-0.046l-0.031-1.859c-0.154-8.607-0.307-17.239-0.466-25.841l-0.005-0.036v-0.041c-0.102-6.216-0.159-13.097-0.195-20.449v0-0.179c-0.266-37.222-0.517-72.381-11.822-105.134-9.452-27.448-23.224-53.335-40.945-76.943-17.398-23.183-38.287-43.771-62.085-61.189v0z" />
<glyph unicode="&#xe917;" glyph-name="待使用抵扣券" horiz-adv-x="1027" d="M1026.159 86.543c-339.44 0-675.053 0-1012.779 0 0 76.438 0 152.559 0 231.985 47.677-1.146 92.013 11.615 117.177 55.214 12.541 21.731 20.692 49.54 20.364 74.463-0.86 65.493-45.375 101.162-139.639 116.788 0 37.418 0 75.481 0 113.544 0 33.233 0.455 66.476-0.22 99.693-0.271 13.278 4.661 18.906 17.734 18.226 6.795-0.353 13.631 0.026 20.446 0.026 313.575 0.005 627.151 0.010 940.726 0 36.185 0 36.19-0.031 36.195-36.113 0.005-56.237-0.936-112.5 0.486-168.707 0.542-21.418-5.792-29.8-27.604-32.624-56.99-7.388-99.008-52.016-103.71-106.57-4.912-57.025 28.531-108.473 82.593-127.021 2.415-0.829 4.835-1.663 7.307-2.313 40.933-10.74 40.933-10.735 40.933-55.132-0.010-59.497-0.010-118.998-0.010-181.458zM518.887 115.319c150.031 0 300.062 0.353 450.083-0.404 20.999-0.107 28.536 5.833 27.773 27.405-1.474 41.716-1.121 83.54-0.077 125.282 0.399 15.928-6.027 22.36-20.395 26.832-68.922 21.444-111.927 76.771-113.288 144.147-1.366 67.637 43.149 125.87 114.803 148.363 13.708 4.303 19.167 10.397 18.845 25.026-0.88 40.043-1.837 80.204 0.246 120.16 1.341 25.716-6.227 33.238-32.573 33.136-259.988-0.998-519.982-0.604-779.976-0.604-39.214 0-78.454-0.911-117.622 0.374-20.497 0.675-26.643-6.928-26.080-26.73 1.182-41.737 0.901-83.54 0.061-125.292-0.297-14.746 4.815-20.216 19.249-23.813 75.773-18.87 124.177-77.973 123.711-148.87-0.471-71.593-47.943-129.559-123.726-148.9-14.434-3.684-19.489-9.43-19.208-24.064 0.788-40.903 1.724-81.897-0.266-122.718-1.202-24.698 8.248-29.892 30.92-29.764 149.166 0.839 298.343 0.435 447.52 0.435zM494.701 472.396c-18.901 50.159-35.32 93.748-51.755 137.337-2.707 7.179-7.353 14.255-7.665 21.526-0.307 7.168 3.751 14.521 5.894 21.792 7.491-3.459 19.131-5.009 21.751-10.704 11.006-23.926 19.218-49.13 28.638-73.798 5.71-14.956 11.758-29.784 19.392-49.054 5.219 8.519 9.261 13.395 11.456 18.998 11.497 29.334 22.365 58.913 33.796 88.278 4.979 12.787 6.851 33.32 26.919 25.614 18.671-7.174 6.621-23.061 2.159-35.070-15.718-42.305-31.856-84.451-47.682-126.714-1.683-4.498-2.369-9.374-4.503-18.098 25.901 0 49.468 0.056 73.041-0.031 7.66-0.031 16.281 1.678 22.713-1.254 6.626-3.019 11.124-10.714 16.552-16.368-5.961-4.999-11.63-13.841-17.929-14.311-23.746-1.765-47.78-2.088-71.541-0.481-20.886 1.412-27.221-6.601-25.435-26.469 1.52-16.916 1.295-34.149 0.046-51.11-1.295-17.55 4.452-24.821 22.841-23.813 22.948 1.264 46.127 1.504 68.988-0.414 7.905-0.665 15.161-9.108 22.713-13.994-7.414-5.132-14.501-14.004-22.309-14.695-22.846-2.021-46.014-1.581-68.988-0.563-18.133 0.803-23.777-6.677-23.281-24.135 0.982-34.932 1.371-69.96-0.399-104.825-0.476-9.389-9.614-18.338-14.777-27.492-5.204 9.128-14.357 18.031-14.9 27.425-1.857 32.291-2.062 64.833-0.24 97.13 1.351 24.013-5.413 34.517-31.028 32.076-21.122-2.011-42.694-1.545-63.846 0.317-7.44 0.655-14.229 8.719-21.316 13.395 7.23 5.337 14.117 14.623 21.746 15.273 23.7 2.026 47.708 1.463 71.546 0.563 15.887-0.604 23.782 3.756 22.703 21.337-1.197 19.535-0.941 39.235-0.061 58.801 0.681 15.166-4.395 21.669-20.339 21.030-23.833-0.952-47.831-1.407-71.557 0.471-8.274 0.655-15.944 8.872-23.89 13.636 7.788 6.13 15.186 16.854 23.429 17.545 26.883 2.262 54.083 0.849 87.116 0.849z" />
<glyph unicode="&#xe918;" glyph-name="购物车" d="M864.235 473.704l91.521 222.162c12.049 30.593-5.045 55.576-38.27 55.576h-586.041l-4.895 34.36c-5.876 28.974-32.498 50.541-62.245 50.541h-154.822c-24.907 0-45.099-20.062-45.099-44.809s20.192-44.809 45.099-44.809h132.979l85.976-423.973c-55.642-16.676-96.184-67.947-96.184-128.669 0-74.241 60.574-134.426 135.298-134.426 74.722 0 135.298 60.185 135.298 134.426 0 16.619-3.179 32.467-8.73 47.159h182.58c-5.55-14.693-8.73-30.54-8.73-47.159 0-74.241 60.574-134.426 135.298-134.426 74.722 0 135.298 60.185 135.298 134.426 0 69.046-52.418 125.865-119.858 133.489-5.2 2.079-10.848 3.288-16.796 3.288h-383.105l-17.697 87.268h381.151c33.063-0.001 69.887 24.882 81.975 55.576zM803.267 149.274c-24.908 0-45.099 20.061-45.099 44.809s20.192 44.809 45.099 44.809c24.908 0 45.099-20.062 45.099-44.809s-20.191-44.809-45.099-44.809zM412.651 194.083c0-24.748-20.193-44.809-45.099-44.809-24.908 0-45.099 20.061-45.099 44.809s20.192 44.809 45.099 44.809c24.906 0.001 45.099-20.061 45.099-44.809z" />
<glyph unicode="&#xe919;" glyph-name="全部订单" d="M281.6 121.6c0-19.2 19.2-38.4 38.4-38.4h608c19.2 0 38.4 19.2 38.4 38.4v25.6c0 19.2-19.2 38.4-38.4 38.4h-608c-19.2 0-38.4-19.2-38.4-38.4v-25.6zM140.8 211.2c-38.4 0-76.8-32-76.8-76.8 0-38.4 32-70.4 76.8-70.4 38.4 0 76.8 32 76.8 76.8-6.4 38.4-38.4 70.4-76.8 70.4zM281.6 435.2c0-19.2 19.2-38.4 38.4-38.4h608c19.2 0 38.4 19.2 38.4 38.4v25.6c0 19.2-19.2 38.4-38.4 38.4h-608c-19.2 0-38.4-19.2-38.4-38.4v-25.6zM140.8 524.8c-44.8 0-76.8-38.4-76.8-76.8s32-76.8 76.8-76.8c38.4 0 76.8 32 76.8 76.8-6.4 38.4-38.4 76.8-76.8 76.8zM320 806.4c-19.2 0-38.4-19.2-38.4-38.4v-25.6c0-19.2 19.2-38.4 38.4-38.4h608c19.2 0 38.4 19.2 38.4 38.4v32c0 19.2-19.2 38.4-38.4 38.4h-608zM140.8 832c-44.8 0-76.8-32-76.8-70.4s32-76.8 76.8-76.8c38.4 0 76.8 32 76.8 76.8-6.4 38.4-38.4 70.4-76.8 70.4z" />
<glyph unicode="&#xe91a;" glyph-name="已完成2" d="M502.553 2.804c-107.762 0-211.616 39.166-292.429 110.281-80.072 70.463-132.044 167.191-146.344 272.362-1.875 13.794 7.786 26.496 21.581 28.373s26.497-7.786 28.373-21.582c26.279-193.274 193.435-339.022 388.82-339.022 216.381 0 392.42 176.039 392.42 392.42s-176.039 392.42-392.42 392.42c-149.673 0-288.466-87.141-353.591-222.002-6.054-12.536-21.124-17.79-33.66-11.737s-17.791 21.123-11.737 33.66c35.698 73.924 91.179 136.449 160.445 180.814 71.168 45.584 153.655 69.679 238.542 69.679 59.771 0 117.767-11.712 172.379-34.81 52.735-22.306 100.090-54.232 140.752-94.892s72.588-88.016 94.892-140.753c23.1-54.611 34.81-112.607 34.81-172.378s-11.712-117.767-34.81-172.379c-22.306-52.734-54.231-100.090-94.892-140.752-40.661-40.66-88.016-72.588-140.752-94.892-54.611-23.098-112.607-34.809-172.378-34.809zM456.748 285.712c-6.421 0-12.621 2.452-17.313 6.888l-196.689 185.911c-10.117 9.563-10.566 25.516-1.004 35.633s25.516 10.566 35.633 1.004l177.293-167.578 271.101 321.773c8.969 10.646 24.871 12.006 35.517 3.036s12.006-24.872 3.036-35.518l-288.296-342.183c-4.468-5.304-10.925-8.532-17.848-8.925-0.478-0.030-0.955-0.042-1.43-0.042z" />
<glyph unicode="&#xe91b;" glyph-name="退款，售后" d="M848.315 442.702c0-7.178 5.821-12.999 13.013-12.999s12.999 5.821 12.999 12.999c0 147.011-98.941 276.718-240.565 315.443-6.845 1.849-14.068-2.181-15.975-9.1-1.892-6.948 2.182-14.097 9.115-15.989 130.371-35.648 221.413-155.028 221.413-290.354zM547.33 743.702c5.633 0 11.237-0.159 16.813-0.463 0.246-0.014 0.49-0.014 0.722-0.014 6.876 0 12.609 5.359 12.971 12.292 0.404 7.164-5.085 13.303-12.25 13.679-6.066 0.333-12.132 0.506-18.257 0.506-7.164 0-13-5.806-13-13 0-7.178 5.836-12.999 13-12.999zM536.41 873.38c-233.705 0-423.831-190.134-423.831-423.845 0-16.8 1.017-33.772 2.989-50.501l-30.592-11.045c-9.359-3.366-15.975-11.137-17.68-20.785-1.993-11.007 2.398-22.561 11.598-30.347l88.787-72.378c5.589-4.709 11.829-7.193 18.055-7.193 12.538 0 22.388 9.591 24.988 24.121l23.053 110.729c1.748 9.736-0.924 19.99-7.15 27.43-7.554 9.042-19.63 12.45-30.506 8.55l-23.174-8.367c-0.8 9.925-1.209 19.891-1.209 29.786 0 201.089 163.593 364.682 364.668 364.682s364.667-163.593 364.667-364.682c0-201.091-163.593-364.684-364.667-364.684-88.166 0-173.27 31.892-239.612 89.799-12.321 10.739-30.997 9.468-41.743-2.838s-9.475-30.989 2.831-41.736c77.132-67.316 176.043-104.387 278.525-104.387 233.704 0 423.831 190.133 423.831 423.845s-190.127 423.845-423.831 423.845zM406.385 362.337c-8.118 0-14.213-1.835-18.257-5.446-4.058-3.64-6.080-10.153-6.080-19.529 0-17.073 8.536-25.608 25.609-25.608h100.531v-84.527c0-11.527 1.819-19.659 5.432-24.337 3.626-4.709 10.789-7.050 21.464-7.050s17.708 2.34 21.146 7.050c3.38 4.679 5.113 12.812 5.113 24.337v84.526h101.802c17.086 0 25.623 8.304 25.623 24.959 0 17.073-8.536 25.625-25.623 25.625h-101.802v40.326h101.802c17.086 0 25.623 8.321 25.623 24.975 0 17.072-8.536 25.623-25.623 25.623h-74.272l92.846 155.591c4.694 8.118 7.049 15.051 7.049 20.813 0 5.778-3.437 10.761-10.255 15.051-6.413 4.275-12.913 6.399-19.528 6.399s-13.13-5.345-19.513-16.003l-104.387-176.102-104.374 176.103c-5.979 10.226-12.71 15.354-20.178 15.354s-13.967-2.123-19.514-6.399c-5.546-3.827-8.334-8.955-8.334-15.368 0-6.399 1.921-13.014 5.763-19.846l92.846-155.591h-74.907c-8.118 0-14.213-1.835-18.257-5.445-4.058-3.64-6.080-10.154-6.080-19.528 0-17.088 8.536-25.625 25.609-25.625h100.531v-40.326h-101.803z" />
<glyph unicode="&#xe91c;" glyph-name="已完成" d="M502.553 2.804c-107.762 0-211.616 39.166-292.429 110.281-80.072 70.463-132.044 167.191-146.344 272.362-1.875 13.794 7.786 26.496 21.581 28.373s26.497-7.786 28.373-21.582c26.279-193.274 193.435-339.022 388.82-339.022 216.381 0 392.42 176.039 392.42 392.42s-176.039 392.42-392.42 392.42c-149.673 0-288.466-87.141-353.591-222.002-6.054-12.536-21.124-17.79-33.66-11.737s-17.791 21.123-11.737 33.66c35.698 73.924 91.179 136.449 160.445 180.814 71.168 45.584 153.655 69.679 238.542 69.679 59.771 0 117.767-11.712 172.379-34.81 52.735-22.306 100.090-54.232 140.752-94.892s72.588-88.016 94.892-140.753c23.1-54.611 34.81-112.607 34.81-172.378s-11.712-117.767-34.81-172.379c-22.306-52.734-54.231-100.090-94.892-140.752-40.661-40.66-88.016-72.588-140.752-94.892-54.611-23.098-112.607-34.809-172.378-34.809zM456.748 285.712c-6.421 0-12.621 2.452-17.313 6.888l-196.689 185.911c-10.117 9.563-10.566 25.516-1.004 35.633s25.516 10.566 35.633 1.004l177.293-167.578 271.101 321.773c8.969 10.646 24.871 12.006 35.517 3.036s12.006-24.872 3.036-35.518l-288.296-342.183c-4.468-5.304-10.925-8.532-17.848-8.925-0.478-0.030-0.955-0.042-1.43-0.042z" />
<glyph unicode="&#xe91d;" glyph-name="环保行业" d="M632.294 141.542c-60.646 15.155-381.312 111.206-406.349 453.862 0 0-56.73-206.259 66.816-398.157 89.651-139.392 221.517-133.402 295.629-100.403 157.645-13.645 253.261 44.698 253.261 44.698-70.861-25.702-190.259-3.789-209.357 0zM280.141 818.79c-23.731-102.118-25.344-188.749-12.339-261.99 13.722 58.086 39.142 84.429 39.142 84.429-25.344-68.301-18.893-142.182-15.258-169.856 14.413-37.325 32.742-70.477 53.837-99.533-0.077 104.832 40.678 165.478 40.678 165.478-21.402-98.816 5.658-200.371 13.952-227.584 26.214-25.088 53.965-45.952 81.203-63.258-26.65 124.698 9.344 206.234 9.344 206.234-3.994-106.035 39.629-206.822 56.934-242.586 66.15-31.053 117.504-41.088 117.504-41.088s83.712 238.797-144.41 401.946c-169.344 121.216-240.589 247.808-240.589 247.808z" />
</font>
</defs>
</svg>
